<svg width="429" height="57.80012587745033" viewBox="0 0 404.8128208936475 54.541333343726286" class="css-1j8o68f"><defs id="SvgjsDefs3530"><linearGradient id="SvgjsLinearGradient3537"><stop id="SvgjsStop3538" stop-color="#00ff8f" offset="0"></stop><stop id="SvgjsStop3539" stop-color="#00a1ff" offset="1"></stop></linearGradient><linearGradient id="SvgjsLinearGradient3540"><stop id="SvgjsStop3541" stop-color="#00ff8f" offset="0"></stop><stop id="SvgjsStop3542" stop-color="#00a1ff" offset="1"></stop></linearGradient><linearGradient id="SvgjsLinearGradient3543"><stop id="SvgjsStop3544" stop-color="#00ff8f" offset="0"></stop><stop id="SvgjsStop3545" stop-color="#00a1ff" offset="1"></stop></linearGradient></defs><g id="SvgjsG3531" featurekey="nameLeftFeature-0" transform="matrix(1.8672024925270876,0,0,1.8672024925270876,-3.4098852075231543,4.004046416176038)" fill="url(#SvgjsLinearGradient3537)"><path d="M1.8262 20 l0 -14.111 l2.9297 0 l0 14.111 l-2.9297 0 z M19.96109375 5.888999999999999 l2.9199 0 l0 14.111 l-3.3887 0 l-6.25 -10.088 l0 10.088 l-2.9199 0 l0 -14.111 l3.3496 0 l6.2891 10.029 l0 -10.029 z M36.640859375 5.888999999999999 l0 2.5781 l-3.3496 0 l0 11.533 l-2.9004 0 l0 -11.533 l-3.3691 0 l0 -2.5781 l9.6191 0 z M40.781278125 20 l0 -14.111 l2.9297 0 l0 14.111 l-2.9297 0 z M65.449171875 20 l-2.9199 0 l-0.92773 -10.635 l-3.5742 10.635 l-1.8945 0 l-3.5742 -10.635 l-0.9375 10.635 l-2.9297 0 l1.1816 -14.111 l4.1797 0 l3.0078 8.8574 l3.0469 -8.8574 l4.1797 0 z M79.88328125 20 l-1.0254 -2.9102 l-5.9277 0 l-1.0254 2.9102 l-2.998 0 l5.1953 -14.111 l3.584 0 l5.1953 14.111 l-2.998 0 z M73.78908125 14.6387 l4.209 0 l-2.0996 -5.9863 z M95.10765625 5.888999999999999 l0 2.5781 l-3.3496 0 l0 11.533 l-2.9004 0 l0 -11.533 l-3.3691 0 l0 -2.5781 l9.6191 0 z M107.431875 8.467 l-5.2344 0 l0 3.2031 l4.6387 0 l0 2.5488 l-4.6387 0 l0 3.1934 l5.2344 0 l0 2.5879 l-8.1836 0 l0 -14.111 l8.1836 0 l0 2.5781 z"></path></g><g id="SvgjsG3532" featurekey="inlineSymbolFeature-0" transform="matrix(0.48691605603485794,0,0,0.48691605603485794,217,-0.0000037148746950901637)" fill="url(#SvgjsLinearGradient3540)"><g xmlns="http://www.w3.org/2000/svg" transform="translate(-48.647544,-82.332369)"><path style="" d="m 67.967294,82.336687 v 0 c -10.14738,0.086 -19.31805,9.3382 -19.31975,19.486103 v 73.0963 c 8.8e-4,6.8019 3.85207,13.4744 9.74254,16.8755 5.89048,3.4013 13.5948,3.403 19.48617,0 a 7.436299,7.436299 0 0 0 0.003,0 l 63.302056,-36.54971 c 5.89145,-3.40149 9.74257,-10.07619 9.74257,-16.87909 0,-6.803 -3.85112,-13.477 -9.74257,-16.8785 L 77.879254,84.940687 a 7.436299,7.436299 0 0 0 -0.003,0 c -2.99331,-1.7269 -6.45335,-2.6376 -9.90896,-2.6076 z m -8.55195,43.508403 a 3.749771,3.749771 0 0 1 2.66756,1.0982 l 6.0978,6.0983 6.09835,-6.0983 a 3.749771,3.749771 0 0 1 2.63549,-1.0982 3.749771,3.749771 0 0 1 2.66703,1.0982 3.749771,3.749771 0 0 1 0,5.304 l -6.09783,6.0973 6.09783,6.0979 a 3.749771,3.749771 0 0 1 0,5.3035 3.749771,3.749771 0 0 1 -5.30252,0 l -6.09835,-6.0978 -6.0978,6.0978 a 3.749771,3.749771 0 0 1 -5.30304,0 3.749771,3.749771 0 0 1 0,-5.3035 l 6.09782,-6.0979 -6.09782,-6.0973 a 3.749771,3.749771 0 0 1 0,-5.304 3.749771,3.749771 0 0 1 2.63548,-1.0982 z m 28.08666,0 a 3.749771,3.749771 0 0 1 2.66756,1.0982 l 6.09729,6.0978 6.097826,-6.0978 a 3.749771,3.749771 0 0 1 2.63652,-1.0982 3.749771,3.749771 0 0 1 2.66703,1.0982 3.749771,3.749771 0 0 1 0,5.304 l -6.0973,6.0973 6.0973,6.0979 a 3.749771,3.749771 0 0 1 0,5.3035 3.749771,3.749771 0 0 1 -5.30355,0 l -6.097826,-6.0973 -6.09729,6.0973 a 3.749771,3.749771 0 0 1 -5.30408,0 3.749771,3.749771 0 0 1 0,-5.3035 l 6.09783,-6.0979 -6.09783,-6.0973 a 3.749771,3.749771 0 0 1 0,-5.304 3.749771,3.749771 0 0 1 2.63652,-1.0982 z m 28.085626,0 a 3.749771,3.749771 0 0 1 2.66703,1.0982 l 6.09832,6.0983 6.09836,-6.0983 a 3.749771,3.749771 0 0 1 2.63549,-1.0982 3.749771,3.749771 0 0 1 2.66702,1.0982 3.749771,3.749771 0 0 1 0,5.304 l -6.09782,6.0973 6.09782,6.0979 a 3.749771,3.749771 0 0 1 0,5.3035 3.749771,3.749771 0 0 1 -5.30251,0 l -6.09836,-6.0978 -6.09832,6.0978 a 3.749771,3.749771 0 0 1 -5.30252,0 3.749771,3.749771 0 0 1 0,-5.3035 l 6.09783,-6.0979 -6.09783,-6.0973 a 3.749771,3.749771 0 0 1 0,-5.304 3.749771,3.749771 0 0 1 2.63549,-1.0982 z" fill="url(#SvgjsLinearGradient3540)" stroke="none"></path></g></g><g id="SvgjsG3533" featurekey="nameRightFeature-0" transform="matrix(1.8168777628619437,0,0,1.8168777628619437,273.355173944896,4.656060350836823)" fill="url(#SvgjsLinearGradient3543)"><path d="M17.129140624999998 5.888999999999999 l0 2.5781 l-3.3496 0 l0 11.533 l-2.9004 0 l0 -11.533 l-3.3691 0 l0 -2.5781 l9.6191 0 z M30.713359375 20 l-1.0254 -2.9102 l-5.9277 0 l-1.0254 2.9102 l-2.998 0 l5.1953 -14.111 l3.584 0 l5.1953 14.111 l-2.998 0 z M24.619159375 14.6387 l4.209 0 l-2.0996 -5.9863 z M40.683634375 17.4121 l4.4238 0 l0 2.5879 l-7.3535 0 l0 -14.111 l2.9297 0 l0 11.523 z M57.45140625 8.467 l-5.2344 0 l0 3.2031 l4.6387 0 l0 2.5488 l-4.6387 0 l0 3.1934 l5.2344 0 l0 2.5879 l-8.1836 0 l0 -14.111 l8.1836 0 l0 2.5781 z M67.08010625 20.19531 c-3.0273 0 -5.3906 -1.4551 -5.8203 -4.1016 l3.0273 -0.69336 c0.19531 1.582 1.3574 2.4023 2.9102 2.4023 c1.1914 0 2.1387 -0.52734 2.1289 -1.7188 c-0.0097656 -1.3281 -1.5723 -1.748 -3.291 -2.2754 c-2.0703 -0.64453 -4.2871 -1.4063 -4.2871 -4.0039 c0 -2.627 2.1484 -4.1113 4.9805 -4.1113 c2.4805 0 4.9805 1.0059 5.5469 3.7109 l-2.832 0.70313 c-0.26367 -1.4063 -1.2109 -2.0215 -2.5391 -2.0215 c-1.1816 0 -2.1875 0.48828 -2.1875 1.6504 c0 1.084 1.3867 1.4453 2.9883 1.9238 c2.1289 0.64453 4.6484 1.4648 4.6484 4.2773 c0 2.998 -2.5098 4.2578 -5.2734 4.2578 z"></path></g></svg>